<svg width="225" height="63" viewBox="0 0 225 63" fill="none" xmlns="http://www.w3.org/2000/svg">
<path d="M29.9394 10.2624C29.9016 9.28492 29.0769 8.51581 28.1056 8.6316C25.1704 8.98146 22.3288 9.91635 19.7512 11.3875C17.1737 12.8586 14.9235 14.8298 13.1295 17.179C12.5357 17.9565 12.7786 19.0577 13.601 19.5873L18.0684 22.4646C18.8909 22.9943 19.9787 22.7475 20.613 22.0028C21.608 20.8347 22.8008 19.8443 24.1412 19.0793C25.4816 18.3143 26.9411 17.7909 28.4529 17.5283C29.4167 17.3609 30.1824 16.5498 30.1446 15.5723L29.9394 10.2624Z" fill="#5F2BF7"/>
<path d="M48.8513 19.6643C49.679 19.1429 49.9328 18.0441 49.3468 17.2608C47.5762 14.8938 45.3458 12.9004 42.783 11.4037C40.2202 9.907 37.388 8.94389 34.4565 8.56484C33.4863 8.4394 32.6541 9.20027 32.6066 10.1774L32.3485 15.4849C32.301 16.462 33.0586 17.2807 34.0207 17.4577C35.5298 17.7353 36.9839 18.2731 38.3167 19.0514C39.6494 19.8298 40.8323 20.832 41.8157 22.0099C42.4425 22.7609 43.5278 23.0185 44.3555 22.4971L48.8513 19.6643Z" fill="#5F2BF7"/>
<path d="M50.165 40.7436C51.0305 41.1996 52.1089 40.87 52.4943 39.9709C53.6589 37.254 54.27 34.3257 54.2848 31.3579C54.2996 28.3901 53.7176 25.4558 52.5801 22.7275C52.2036 21.8246 51.1286 21.4843 50.2586 21.9317L45.5331 24.362C44.6631 24.8094 44.333 25.8748 44.6608 26.7965C45.1749 28.2423 45.4362 29.7705 45.4285 31.3138C45.4208 32.8572 45.1443 34.3827 44.6158 35.8233C44.2789 36.7417 44.5985 37.8104 45.4639 38.2664L50.165 40.7436Z" fill="#5F2BF7"/>
<path d="M32.5668 52.4209C32.6046 53.3984 33.4292 54.1675 34.4006 54.0517C37.3357 53.7019 40.1773 52.767 42.7549 51.2959C45.3325 49.8247 47.5826 47.8535 49.3766 45.5043C49.9704 44.7268 49.7276 43.6257 48.9051 43.096L44.4377 40.2187C43.6152 39.689 42.5275 39.9358 41.8931 40.6805C40.8981 41.8486 39.7053 42.839 38.3649 43.604C37.0245 44.3691 35.5651 44.8924 34.0533 45.155C33.0894 45.3224 32.3237 46.1335 32.3615 47.111L32.5668 52.4209Z" fill="#5F2BF7"/>
<path d="M13.6548 43.019C12.8271 43.5405 12.5734 44.6392 13.1593 45.4225C14.9299 47.7895 17.1603 49.7829 19.7231 51.2796C22.2859 52.7763 25.1181 53.7394 28.0496 54.1185C29.0198 54.2439 29.852 53.483 29.8996 52.5059L30.1576 47.1984C30.2052 46.2213 29.4475 45.4026 28.4854 45.2256C26.9763 44.948 25.5222 44.4102 24.1894 43.6319C22.8567 42.8536 21.6738 41.8513 20.6905 40.6734C20.0636 39.9224 18.9783 39.6648 18.1506 40.1863L13.6548 43.019Z" fill="#5F2BF7"/>
<path d="M12.3411 21.9398C11.4756 21.4837 10.3972 21.8133 10.0118 22.7125C8.84725 25.4293 8.23607 28.3576 8.22131 31.3254C8.20655 34.2932 8.78856 37.2275 9.92604 39.9558C10.3025 40.8587 11.3775 41.199 12.2475 40.7516L16.973 38.3214C17.843 37.874 18.1731 36.8085 17.8454 35.8868C17.3312 34.4411 17.0699 32.9128 17.0776 31.3695C17.0853 29.8262 17.3618 28.3006 17.8903 26.86C18.2272 25.9416 17.9077 24.873 17.0422 24.4169L12.3411 21.9398Z" fill="#5F2BF7"/>
<path d="M68.0508 19.4101H74.8341V41.356H87.2036V47.3413H68.0508V19.4101ZM89.1613 36.9668C89.1613 34.9718 89.6534 33.1496 90.6377 31.5003C91.6219 29.851 92.9653 28.5609 94.6677 27.6298C96.3702 26.6722 98.2589 26.1934 100.334 26.1934C102.409 26.1934 104.297 26.6722 106 27.6298C107.702 28.5609 109.046 29.851 110.03 31.5003C111.014 33.1496 111.506 34.9718 111.506 36.9668C111.506 38.9619 111.014 40.7841 110.03 42.4334C109.046 44.0827 107.702 45.3861 106 46.3438C104.297 47.2748 102.409 47.7403 100.334 47.7403C98.2589 47.7403 96.3702 47.2748 94.6677 46.3438C92.9653 45.3861 91.6219 44.0827 90.6377 42.4334C89.6534 40.7841 89.1613 38.9619 89.1613 36.9668ZM95.785 36.9668C95.785 37.8979 95.9845 38.7491 96.3835 39.5206C96.7825 40.2654 97.3279 40.8506 98.0195 41.2762C98.7111 41.7019 99.4826 41.9147 100.334 41.9147C101.185 41.9147 101.956 41.7019 102.648 41.2762C103.34 40.8506 103.885 40.2654 104.284 39.5206C104.683 38.7491 104.883 37.8979 104.883 36.9668C104.883 36.0358 104.683 35.1979 104.284 34.453C103.885 33.6816 103.34 33.0831 102.648 32.6575C101.956 32.2318 101.185 32.019 100.334 32.019C99.4826 32.019 98.7111 32.2318 98.0195 32.6575C97.3279 33.0831 96.7825 33.6816 96.3835 34.453C95.9845 35.1979 95.785 36.0358 95.785 36.9668ZM114.304 36.9668C114.304 34.9718 114.796 33.1496 115.78 31.5003C116.765 29.851 118.108 28.5609 119.811 27.6298C121.513 26.6722 123.402 26.1934 125.477 26.1934C127.551 26.1934 129.44 26.6722 131.143 27.6298C132.845 28.5609 134.188 29.851 135.173 31.5003C136.157 33.1496 136.649 34.9718 136.649 36.9668C136.649 38.9619 136.157 40.7841 135.173 42.4334C134.188 44.0827 132.845 45.3861 131.143 46.3438C129.44 47.2748 127.551 47.7403 125.477 47.7403C123.402 47.7403 121.513 47.2748 119.811 46.3438C118.108 45.3861 116.765 44.0827 115.78 42.4334C114.796 40.7841 114.304 38.9619 114.304 36.9668ZM120.928 36.9668C120.928 37.8979 121.127 38.7491 121.526 39.5206C121.925 40.2654 122.471 40.8506 123.162 41.2762C123.854 41.7019 124.625 41.9147 125.477 41.9147C126.328 41.9147 127.099 41.7019 127.791 41.2762C128.483 40.8506 129.028 40.2654 129.427 39.5206C129.826 38.7491 130.025 37.8979 130.025 36.9668C130.025 36.0358 129.826 35.1979 129.427 34.453C129.028 33.6816 128.483 33.0831 127.791 32.6575C127.099 32.2318 126.328 32.019 125.477 32.019C124.625 32.019 123.854 32.2318 123.162 32.6575C122.471 33.0831 121.925 33.6816 121.526 34.453C121.127 35.1979 120.928 36.0358 120.928 36.9668ZM140.245 26.5924H146.629V55.3217H140.245V26.5924ZM143.597 36.9668C143.597 34.9186 143.956 33.0831 144.674 31.4604C145.419 29.8111 146.47 28.521 147.826 27.5899C149.183 26.6589 150.766 26.1934 152.575 26.1934C154.383 26.1934 156.033 26.6722 157.522 27.6298C159.039 28.5609 160.222 29.851 161.074 31.5003C161.925 33.1496 162.351 34.9718 162.351 36.9668C162.351 38.9619 161.925 40.7841 161.074 42.4334C160.222 44.0827 159.039 45.3861 157.522 46.3438C156.033 47.2748 154.383 47.7403 152.575 47.7403C150.766 47.7403 149.183 47.2748 147.826 46.3438C146.47 45.4127 145.419 44.1359 144.674 42.5132C143.956 40.8639 143.597 39.0151 143.597 36.9668ZM146.629 36.9668C146.629 37.8979 146.829 38.7491 147.228 39.5206C147.627 40.2654 148.172 40.8506 148.864 41.2762C149.555 41.7019 150.327 41.9147 151.178 41.9147C152.029 41.9147 152.801 41.7019 153.492 41.2762C154.184 40.8506 154.729 40.2654 155.128 39.5206C155.527 38.7491 155.727 37.8979 155.727 36.9668C155.727 36.0358 155.527 35.1979 155.128 34.453C154.729 33.6816 154.184 33.0831 153.492 32.6575C152.801 32.2318 152.029 32.019 151.178 32.019C150.327 32.019 149.555 32.2318 148.864 32.6575C148.172 33.0831 147.627 33.6816 147.228 34.453C146.829 35.1979 146.629 36.0358 146.629 36.9668ZM165.933 26.5924H172.318V31.9392L171.28 30.7821C171.786 29.6648 172.49 28.7072 173.395 27.9091C174.299 27.1111 175.31 26.5924 176.427 26.353C177.545 26.087 178.662 26.1668 179.779 26.5924V32.5776C178.396 32.019 177.132 31.8062 175.989 31.9392C174.845 32.0456 173.94 32.4446 173.275 33.1363C172.637 33.8279 172.318 34.719 172.318 35.8097V47.3413H165.933V26.5924ZM180.956 41.6753C180.956 39.4142 181.754 37.7649 183.35 36.7274C184.946 35.6634 186.914 35.025 189.255 34.8121L192.088 34.5727C192.673 34.5195 193.099 34.3865 193.365 34.1737C193.631 33.9609 193.764 33.6417 193.764 33.2161C193.764 32.6841 193.498 32.2451 192.966 31.8993C192.461 31.5535 191.809 31.3806 191.011 31.3806C190.106 31.3806 189.388 31.62 188.856 32.0988C188.324 32.5776 188.005 33.2028 187.899 33.9742L181.554 32.6175C181.687 31.4737 182.139 30.4097 182.911 29.4254C183.709 28.4412 184.786 27.6564 186.143 27.0712C187.526 26.486 189.122 26.1934 190.931 26.1934C193.698 26.1934 195.919 26.9116 197.595 28.3481C199.297 29.7579 200.148 31.8461 200.148 34.6126V47.3413H193.764V44.7078L194.163 44.8275C193.525 45.6521 192.634 46.3438 191.49 46.9024C190.372 47.461 189.136 47.7403 187.779 47.7403C186.475 47.7403 185.305 47.5009 184.268 47.0221C183.257 46.5167 182.445 45.8117 181.833 44.9073C181.248 43.9763 180.956 42.8989 180.956 41.6753ZM187.34 41.1166C187.34 41.6221 187.513 42.0211 187.859 42.3137C188.231 42.6063 188.75 42.7526 189.415 42.7526C190.133 42.7526 190.825 42.5664 191.49 42.194C192.181 41.8216 192.727 41.3427 193.126 40.7575C193.551 40.1457 193.764 39.5206 193.764 38.8821V38.2038L194.163 38.3235C194.057 38.5629 193.871 38.7358 193.605 38.8422C193.339 38.9486 192.9 39.0284 192.288 39.0816L189.215 39.4408C188.604 39.5206 188.138 39.7201 187.819 40.0393C187.5 40.3319 187.34 40.691 187.34 41.1166ZM204.334 26.5924H210.718V47.3413H204.334V26.5924ZM203.736 21.0061C203.736 19.9687 204.108 19.0775 204.853 18.3327C205.598 17.5879 206.489 17.2155 207.526 17.2155C208.564 17.2155 209.455 17.5879 210.2 18.3327C210.944 19.0775 211.317 19.9687 211.317 21.0061C211.317 22.017 210.944 22.9081 210.2 23.6795C209.455 24.4244 208.564 24.7968 207.526 24.7968C206.489 24.7968 205.598 24.4244 204.853 23.6795C204.108 22.9081 203.736 22.017 203.736 21.0061ZM215.098 17.814H221.482V47.3413H215.098V17.814Z" fill="#5F2BF7"/>
</svg>
